    <svg xmlns="http://www.w3.org/2000/svg" width="75" height="250" style="fill: none; stroke: white; stroke-width: 3.8; stroke-linejoin: round; stroke-linecap: round;">
    <style>
            .small { font: bold 13px sans-serif; fill: white; stroke: none }
    </style>
        <rect x="0" y="0" width="100%" height="100%"
              style="fill:black;stroke:none;" />
    <rect x="18.7" y="125" rx="5" ry="5" width="13" height="90"
          style="fill:red;stroke:none;" />
    <circle cx="25.2" cy="227.5" r="16" stroke="none" fill="red" />
    <path d="M 15 210
            A 20 20 0 1 0  35 210
            L 35 20
            A 5 5 0 1 0  15 20
            L 15 210
            "/>
    <path d="M14 226 A 8 8 0 0 1 20 218"/>

    <line x1="40" y1="20" x2="47" y2="20"/>
    <text x="55" y="25" class="small">30</text>

            <line x1="40" y1="24.5" x2="40" y2="24.5"/>
            <line x1="40" y1="29" x2="40" y2="29"/>
            <line x1="40" y1="33.5" x2="40" y2="33.5"/>
            <line x1="40" y1="38" x2="40" y2="38"/>

        <line x1="40" y1="42.5" x2="43" y2="42.5"/>

            <line x1="40" y1="47" x2="40" y2="47"/>
            <line x1="40" y1="51.5" x2="40" y2="51.5"/>
            <line x1="40" y1="56" x2="40" y2="56"/>
            <line x1="40" y1="60.5" x2="40" y2="60.5"/>

    <line x1="40" y1="65" x2="47" y2="65"/>
    <text x="55" y="70" class="small">20</text>

            <line x1="40" y1="69.5" x2="40" y2="69.5"/>
            <line x1="40" y1="74" x2="40" y2="74"/>
            <line x1="40" y1="78.5" x2="40" y2="78.5"/>
            <line x1="40" y1="83" x2="40" y2="83"/>

        <line x1="40" y1="87.5" x2="43" y2="87.5"/>

            <line x1="40" y1="92" x2="40" y2="92"/>
            <line x1="40" y1="96.5" x2="40" y2="96.5"/>
            <line x1="40" y1="101" x2="40" y2="101"/>
            <line x1="40" y1="105.5" x2="40" y2="105.5"/>

    <line x1="40" y1="110" x2="47" y2="110"/>
    <text x="55" y="115" class="small">10</text>

            <line x1="40" y1="114.5" x2="40" y2="114.5"/>
            <line x1="40" y1="119" x2="40" y2="119"/>
            <line x1="40" y1="123.5" x2="40" y2="123.5"/>
            <line x1="40" y1="128" x2="40" y2="128"/>

        <line x1="40" y1="132.5" x2="43" y2="132.5"/>

            <line x1="40" y1="137" x2="40" y2="137"/>
            <line x1="40" y1="141.5" x2="40" y2="141.5"/>
            <line x1="40" y1="146" x2="40" y2="146"/>
            <line x1="40" y1="150.5" x2="40" y2="150.5"/>

    <line x1="40" y1="155" x2="47" y2="155"/>
    <text x="62.3" y="160" class="small">0</text>

            <line x1="40" y1="159.5" x2="40" y2="159.5"/>
            <line x1="40" y1="164" x2="40" y2="164"/>
            <line x1="40" y1="168.5" x2="40" y2="168.5"/>
            <line x1="40" y1="173" x2="40" y2="173"/>

        <line x1="40" y1="177.5" x2="43" y2="177.5"/>

            <line x1="40" y1="182" x2="40" y2="182"/>
            <line x1="40" y1="186.5" x2="40" y2="186.5"/>
            <line x1="40" y1="191" x2="40" y2="191"/>
            <line x1="40" y1="195.5" x2="40" y2="195.5"/>

    <line x1="40" y1="200" x2="47" y2="200"/>
    <text x="50.9" y="205" class="small">-10</text>

</svg>
